<mxfile host="app.diagrams.net" modified="2024-05-17T06:27:06.544Z" agent="Mozilla/5.0 (Windows NT 10.0; Win64; x64) AppleWebKit/537.36 (KHTML, like Gecko) Chrome/124.0.0.0 Safari/537.36" etag="ZYxZfJNzlht4pvzJsdS5" version="24.3.1" type="device">
  <diagram name="Page-1" id="58cdce13-f638-feb5-8d6f-7d28b1aa9fa0">
    <mxGraphModel dx="1434" dy="738" grid="1" gridSize="10" guides="1" tooltips="1" connect="1" arrows="1" fold="1" page="1" pageScale="1" pageWidth="1100" pageHeight="850" background="none" math="0" shadow="0">
      <root>
        <mxCell id="0" />
        <mxCell id="1" parent="0" />
        <mxCell id="382b91b5511bd0f7-1" value="" style="ellipse;html=1;shape=startState;fillColor=#000000;strokeColor=#ff0000;rounded=1;shadow=0;comic=0;labelBackgroundColor=none;fontFamily=Verdana;fontSize=12;fontColor=#000000;align=center;direction=south;" parent="1" vertex="1">
          <mxGeometry x="525" y="50" width="30" height="30" as="geometry" />
        </mxCell>
        <mxCell id="TIDaN1ExK7NTbUgccvKn-16" style="edgeStyle=orthogonalEdgeStyle;rounded=0;orthogonalLoop=1;jettySize=auto;html=1;entryX=0.5;entryY=0;entryDx=0;entryDy=0;" parent="1" source="382b91b5511bd0f7-6" target="TIDaN1ExK7NTbUgccvKn-7" edge="1">
          <mxGeometry relative="1" as="geometry" />
        </mxCell>
        <mxCell id="TIDaN1ExK7NTbUgccvKn-17" value="&lt;span style=&quot;font-size: 17px;&quot;&gt;Chỉnh sửa thông tin&lt;/span&gt;" style="edgeLabel;html=1;align=center;verticalAlign=middle;resizable=0;points=[];" parent="TIDaN1ExK7NTbUgccvKn-16" vertex="1" connectable="0">
          <mxGeometry x="-0.0779" y="-2" relative="1" as="geometry">
            <mxPoint x="82" y="-1" as="offset" />
          </mxGeometry>
        </mxCell>
        <mxCell id="382b91b5511bd0f7-6" value="Tạo lập" style="rounded=1;whiteSpace=wrap;html=1;arcSize=24;fillColor=#ffffc0;strokeColor=#ff0000;shadow=0;comic=0;labelBackgroundColor=none;fontFamily=Verdana;fontSize=17;fontColor=#000000;align=center;" parent="1" vertex="1">
          <mxGeometry x="480" y="140" width="120" height="60" as="geometry" />
        </mxCell>
        <mxCell id="2a3bc250acf0617d-9" style="edgeStyle=orthogonalEdgeStyle;html=1;labelBackgroundColor=none;endArrow=open;endSize=8;strokeColor=#000000;fontFamily=Verdana;fontSize=12;align=left;" parent="1" source="382b91b5511bd0f7-1" target="382b91b5511bd0f7-6" edge="1">
          <mxGeometry relative="1" as="geometry" />
        </mxCell>
        <mxCell id="TIDaN1ExK7NTbUgccvKn-4" value="&lt;span style=&quot;font-size: 17px;&quot;&gt;Tạo tài khoản&amp;nbsp;&amp;nbsp;&lt;/span&gt;" style="edgeLabel;html=1;align=center;verticalAlign=middle;resizable=0;points=[];rotation=0;container=0;" parent="2a3bc250acf0617d-9" vertex="1" connectable="0">
          <mxGeometry relative="1" as="geometry">
            <mxPoint x="60" as="offset" />
          </mxGeometry>
        </mxCell>
        <mxCell id="2a3bc250acf0617d-8" value="State - Tài khoản người dùng" style="shape=umlFrame;whiteSpace=wrap;html=1;rounded=1;shadow=0;comic=0;labelBackgroundColor=none;strokeWidth=1;fontFamily=Verdana;fontSize=12;align=center;width=140;height=40;" parent="1" vertex="1">
          <mxGeometry x="60" y="20" width="1000" height="700" as="geometry" />
        </mxCell>
        <mxCell id="TIDaN1ExK7NTbUgccvKn-1" value="" style="ellipse;html=1;shape=endState;fillColor=#000000;strokeColor=#ff0000;" parent="1" vertex="1">
          <mxGeometry x="800" y="640" width="30" height="30" as="geometry" />
        </mxCell>
        <mxCell id="JSC5-hn_m6VDshBw48fL-2" style="edgeStyle=orthogonalEdgeStyle;rounded=0;orthogonalLoop=1;jettySize=auto;html=1;exitX=0.5;exitY=1;exitDx=0;exitDy=0;entryX=0.5;entryY=0;entryDx=0;entryDy=0;" parent="1" source="TIDaN1ExK7NTbUgccvKn-7" target="TIDaN1ExK7NTbUgccvKn-13" edge="1">
          <mxGeometry relative="1" as="geometry" />
        </mxCell>
        <mxCell id="JSC5-hn_m6VDshBw48fL-3" value="Lưu" style="edgeLabel;html=1;align=center;verticalAlign=middle;resizable=0;points=[];fontSize=17;" parent="JSC5-hn_m6VDshBw48fL-2" vertex="1" connectable="0">
          <mxGeometry x="-0.0857" y="4" relative="1" as="geometry">
            <mxPoint x="11" as="offset" />
          </mxGeometry>
        </mxCell>
        <mxCell id="TIDaN1ExK7NTbUgccvKn-7" value="Đang được chỉnh sửa" style="rounded=1;whiteSpace=wrap;html=1;arcSize=24;fillColor=#ffffc0;strokeColor=#ff0000;shadow=0;comic=0;labelBackgroundColor=none;fontFamily=Verdana;fontSize=17;fontColor=#000000;align=center;" parent="1" vertex="1">
          <mxGeometry x="470" y="260" width="140" height="70" as="geometry" />
        </mxCell>
        <mxCell id="TIDaN1ExK7NTbUgccvKn-18" style="edgeStyle=orthogonalEdgeStyle;rounded=0;orthogonalLoop=1;jettySize=auto;html=1;entryX=1;entryY=0.5;entryDx=0;entryDy=0;exitX=1;exitY=0.25;exitDx=0;exitDy=0;" parent="1" source="TIDaN1ExK7NTbUgccvKn-13" target="TIDaN1ExK7NTbUgccvKn-7" edge="1">
          <mxGeometry relative="1" as="geometry">
            <mxPoint x="679.9999999999995" y="380" as="targetPoint" />
            <Array as="points">
              <mxPoint x="600" y="410" />
              <mxPoint x="660" y="410" />
              <mxPoint x="660" y="315" />
            </Array>
          </mxGeometry>
        </mxCell>
        <mxCell id="TIDaN1ExK7NTbUgccvKn-19" value="&lt;font style=&quot;font-size: 17px;&quot;&gt;Chỉnh sửa thông tin&lt;/font&gt;" style="edgeLabel;html=1;align=center;verticalAlign=middle;resizable=0;points=[];" parent="TIDaN1ExK7NTbUgccvKn-18" vertex="1" connectable="0">
          <mxGeometry x="0.05" y="2" relative="1" as="geometry">
            <mxPoint x="82" y="-10" as="offset" />
          </mxGeometry>
        </mxCell>
        <mxCell id="TIDaN1ExK7NTbUgccvKn-36" style="edgeStyle=orthogonalEdgeStyle;rounded=0;orthogonalLoop=1;jettySize=auto;html=1;exitX=0.75;exitY=1;exitDx=0;exitDy=0;entryX=0.75;entryY=0;entryDx=0;entryDy=0;" parent="1" source="TIDaN1ExK7NTbUgccvKn-13" target="TIDaN1ExK7NTbUgccvKn-22" edge="1">
          <mxGeometry relative="1" as="geometry" />
        </mxCell>
        <mxCell id="TIDaN1ExK7NTbUgccvKn-37" value="Yêu cầu xóa" style="edgeLabel;html=1;align=center;verticalAlign=middle;resizable=0;points=[];fontSize=17;" parent="TIDaN1ExK7NTbUgccvKn-36" vertex="1" connectable="0">
          <mxGeometry x="-0.0293" y="4" relative="1" as="geometry">
            <mxPoint x="41" as="offset" />
          </mxGeometry>
        </mxCell>
        <mxCell id="TIDaN1ExK7NTbUgccvKn-42" style="edgeStyle=orthogonalEdgeStyle;rounded=0;orthogonalLoop=1;jettySize=auto;html=1;exitX=1;exitY=0.5;exitDx=0;exitDy=0;entryX=0;entryY=0.5;entryDx=0;entryDy=0;" parent="1" source="TIDaN1ExK7NTbUgccvKn-13" target="TIDaN1ExK7NTbUgccvKn-38" edge="1">
          <mxGeometry relative="1" as="geometry" />
        </mxCell>
        <mxCell id="TIDaN1ExK7NTbUgccvKn-43" value="Sử dụng" style="edgeLabel;html=1;align=center;verticalAlign=middle;resizable=0;points=[];fontSize=17;" parent="TIDaN1ExK7NTbUgccvKn-42" vertex="1" connectable="0">
          <mxGeometry x="-0.2682" relative="1" as="geometry">
            <mxPoint x="48" y="-15" as="offset" />
          </mxGeometry>
        </mxCell>
        <mxCell id="TIDaN1ExK7NTbUgccvKn-52" style="edgeStyle=orthogonalEdgeStyle;rounded=0;orthogonalLoop=1;jettySize=auto;html=1;exitX=0;exitY=0.5;exitDx=0;exitDy=0;" parent="1" source="TIDaN1ExK7NTbUgccvKn-13" target="TIDaN1ExK7NTbUgccvKn-50" edge="1">
          <mxGeometry relative="1" as="geometry" />
        </mxCell>
        <mxCell id="TIDaN1ExK7NTbUgccvKn-53" value="Khóa tài khoản" style="edgeLabel;html=1;align=center;verticalAlign=middle;resizable=0;points=[];fontSize=17;" parent="TIDaN1ExK7NTbUgccvKn-52" vertex="1" connectable="0">
          <mxGeometry x="0.3543" y="-2" relative="1" as="geometry">
            <mxPoint x="25" y="17" as="offset" />
          </mxGeometry>
        </mxCell>
        <mxCell id="TIDaN1ExK7NTbUgccvKn-13" value="Lưu trữ" style="rounded=1;whiteSpace=wrap;html=1;arcSize=24;fillColor=#ffffc0;strokeColor=#ff0000;shadow=0;comic=0;labelBackgroundColor=none;fontFamily=Verdana;fontSize=17;fontColor=#000000;align=center;" parent="1" vertex="1">
          <mxGeometry x="470" y="400" width="140" height="70" as="geometry" />
        </mxCell>
        <mxCell id="TIDaN1ExK7NTbUgccvKn-27" style="edgeStyle=orthogonalEdgeStyle;rounded=0;orthogonalLoop=1;jettySize=auto;html=1;exitX=0.25;exitY=0;exitDx=0;exitDy=0;entryX=0.25;entryY=1;entryDx=0;entryDy=0;" parent="1" source="TIDaN1ExK7NTbUgccvKn-22" target="TIDaN1ExK7NTbUgccvKn-13" edge="1">
          <mxGeometry relative="1" as="geometry" />
        </mxCell>
        <mxCell id="TIDaN1ExK7NTbUgccvKn-29" value="Hủy xóa" style="edgeLabel;html=1;align=center;verticalAlign=middle;resizable=0;points=[];fontSize=17;" parent="TIDaN1ExK7NTbUgccvKn-27" vertex="1" connectable="0">
          <mxGeometry x="0.04" y="-1" relative="1" as="geometry">
            <mxPoint x="-26" y="8" as="offset" />
          </mxGeometry>
        </mxCell>
        <mxCell id="TIDaN1ExK7NTbUgccvKn-30" style="edgeStyle=orthogonalEdgeStyle;rounded=0;orthogonalLoop=1;jettySize=auto;html=1;exitX=1;exitY=0.5;exitDx=0;exitDy=0;entryX=0;entryY=0.5;entryDx=0;entryDy=0;" parent="1" source="TIDaN1ExK7NTbUgccvKn-22" target="TIDaN1ExK7NTbUgccvKn-1" edge="1">
          <mxGeometry relative="1" as="geometry" />
        </mxCell>
        <mxCell id="TIDaN1ExK7NTbUgccvKn-32" value="&lt;font style=&quot;font-size: 17px;&quot;&gt;Xác nhận xóa&lt;/font&gt;" style="edgeLabel;html=1;align=center;verticalAlign=middle;resizable=0;points=[];" parent="TIDaN1ExK7NTbUgccvKn-30" vertex="1" connectable="0">
          <mxGeometry x="-0.1418" y="1" relative="1" as="geometry">
            <mxPoint x="16" y="-14" as="offset" />
          </mxGeometry>
        </mxCell>
        <mxCell id="TIDaN1ExK7NTbUgccvKn-22" value="Chờ để xóa" style="rounded=1;whiteSpace=wrap;html=1;arcSize=24;fillColor=#ffffc0;strokeColor=#ff0000;shadow=0;comic=0;labelBackgroundColor=none;fontFamily=Verdana;fontSize=17;fontColor=#000000;align=center;" parent="1" vertex="1">
          <mxGeometry x="470" y="620" width="140" height="70" as="geometry" />
        </mxCell>
        <mxCell id="TIDaN1ExK7NTbUgccvKn-38" value="Đang hoạt động" style="rounded=1;whiteSpace=wrap;html=1;arcSize=24;fillColor=#ffffc0;strokeColor=#ff0000;shadow=0;comic=0;labelBackgroundColor=none;fontFamily=Verdana;fontSize=17;fontColor=#000000;align=center;" parent="1" vertex="1">
          <mxGeometry x="820" y="400" width="140" height="70" as="geometry" />
        </mxCell>
        <mxCell id="X4JJ_bGOZixYmYmrDWd8-2" style="edgeStyle=orthogonalEdgeStyle;rounded=0;orthogonalLoop=1;jettySize=auto;html=1;exitX=0.5;exitY=1;exitDx=0;exitDy=0;entryX=0;entryY=0.5;entryDx=0;entryDy=0;" parent="1" source="TIDaN1ExK7NTbUgccvKn-50" target="TIDaN1ExK7NTbUgccvKn-22" edge="1">
          <mxGeometry relative="1" as="geometry" />
        </mxCell>
        <mxCell id="X4JJ_bGOZixYmYmrDWd8-3" value="Yêu cầu xóa" style="edgeLabel;html=1;align=center;verticalAlign=middle;resizable=0;points=[];fontSize=17;" parent="X4JJ_bGOZixYmYmrDWd8-2" vertex="1" connectable="0">
          <mxGeometry x="-0.3425" relative="1" as="geometry">
            <mxPoint x="60" y="-53" as="offset" />
          </mxGeometry>
        </mxCell>
        <mxCell id="TIDaN1ExK7NTbUgccvKn-50" value="Tạm ngưng hoạt động" style="rounded=1;whiteSpace=wrap;html=1;arcSize=24;fillColor=#ffffc0;strokeColor=#ff0000;shadow=0;comic=0;labelBackgroundColor=none;fontFamily=Verdana;fontSize=17;fontColor=#000000;align=center;" parent="1" vertex="1">
          <mxGeometry x="150" y="400" width="140" height="70" as="geometry" />
        </mxCell>
      </root>
    </mxGraphModel>
  </diagram>
</mxfile>
